<svg xmlns="http://www.w3.org/2000/svg" xmlns:xlink="http://www.w3.org/1999/xlink" viewBox="0,0,256,256" width="96px" height="96px" fill-rule="nonzero"><g fill="#525252" fill-rule="nonzero" stroke="none" stroke-width="1" stroke-linecap="butt" stroke-linejoin="miter" stroke-miterlimit="10" stroke-dasharray="" stroke-dashoffset="0" font-family="none" font-weight="none" font-size="none" text-anchor="none" style="mix-blend-mode: normal"><g transform="scale(5.33333,5.33333)"><path d="M10.849,10.643c1.308,1.063 1.799,0.982 4.256,0.818l23.161,-1.391c0.492,0 0.083,-0.49 -0.081,-0.571l-3.846,-2.781c-0.737,-0.572 -1.719,-1.227 -3.601,-1.064l-22.426,1.634c-0.818,0.081 -0.981,0.49 -0.655,0.818zM12,16.165v24.125c0,1.296 0.649,1.782 2.112,1.702l25.262,-1.458c1.463,-0.08 1.626,-0.973 1.626,-2.026v-23.963c0,-1.051 -0.406,-1.619 -1.3,-1.538l-26.4,1.538c-0.974,0.081 -1.3,0.568 -1.3,1.62zM37.441,16.724c0.166,0.746 0,1.491 -0.747,1.575l-1.242,0.247v18.213c-1.078,0.579 -2.072,0.91 -2.9,0.91c-1.326,0 -1.659,-0.414 -2.652,-1.655l-8.12,-12.749v12.335l2.57,0.579c0,0 0,1.49 -2.074,1.49l-5.715,0.331c-0.166,-0.331 0,-1.159 0.579,-1.324l1.492,-0.414v-16.308l-2.071,-0.166c-0.167,-0.746 0.247,-1.821 1.408,-1.905l6.131,-0.413l8.451,12.915v-11.425l-2.155,-0.247c-0.166,-0.912 0.497,-1.574 1.325,-1.655zM6.515,5.102l23.124,-1.703c2.84,-0.243 3.571,-0.08 5.355,1.216l7.382,5.188c1.218,0.892 1.624,1.134 1.624,2.107v28.455c0,1.783 -0.649,2.838 -2.921,2.999l-26.855,1.622c-1.705,0.081 -2.517,-0.162 -3.409,-1.297l-5.436,-7.053c-0.974,-1.298 -1.379,-2.269 -1.379,-3.405v-25.294c0,-1.458 0.649,-2.674 2.515,-2.835z"></path></g></g></svg>