<svg xmlns="http://www.w3.org/2000/svg" xmlns:xlink="http://www.w3.org/1999/xlink" viewBox="0,0,256,256" width="96px" height="96px" fill-rule="nonzero"><g fill="#525252" fill-rule="nonzero" stroke="none" stroke-width="1" stroke-linecap="butt" stroke-linejoin="miter" stroke-miterlimit="10" stroke-dasharray="" stroke-dashoffset="0" font-family="none" font-weight="none" font-size="none" text-anchor="none" style="mix-blend-mode: normal"><g transform="scale(5.33333,5.33333)"><path d="M13.5,6c-4.1245,0 -7.5,3.3755 -7.5,7.5v21c0,4.1245 3.3755,7.5 7.5,7.5h21c4.1245,0 7.5,-3.3755 7.5,-7.5v-21c0,-4.1245 -3.3755,-7.5 -7.5,-7.5zM13.5,9h21c2.5035,0 4.5,1.9965 4.5,4.5v21c0,2.5035 -1.9965,4.5 -4.5,4.5h-21c-2.5035,0 -4.5,-1.9965 -4.5,-4.5v-21c0,-2.5035 1.9965,-4.5 4.5,-4.5zM20.96875,15c-0.65092,0.01324 -1.21899,0.44482 -1.40625,1.06836l-4.5,15c-0.15435,0.51361 -0.02293,1.07056 0.34476,1.46098c0.36769,0.39042 0.91575,0.55499 1.43769,0.4317c0.52194,-0.12329 0.93843,-0.51571 1.09255,-1.02939l0.58008,-1.93164h4.96484l0.58008,1.93164c0.15412,0.51368 0.57061,0.9061 1.09255,1.02939c0.52194,0.12329 1.07001,-0.04128 1.43769,-0.4317c0.36769,-0.39042 0.49911,-0.94737 0.34476,-1.46098l-4.5,-15c-0.1939,-0.6457 -0.79472,-1.08273 -1.46875,-1.06836zM30.5,16.5c-1.10457,0 -2,0.89543 -2,2c0,1.10457 0.89543,2 2,2c1.10457,0 2,-0.89543 2,-2c0,-1.10457 -0.89543,-2 -2,-2zM21,21.72266l1.58203,5.27734h-3.16406zM30.47656,21.97852c-0.82766,0.01293 -1.48843,0.69381 -1.47656,1.52148v8c-0.00765,0.54095 0.27656,1.04412 0.74381,1.31683c0.46725,0.27271 1.04514,0.27271 1.51238,0c0.46725,-0.27271 0.75146,-0.77588 0.74381,-1.31683v-8c0.00582,-0.40562 -0.15288,-0.7963 -0.43991,-1.08296c-0.28703,-0.28666 -0.67792,-0.44486 -1.08353,-0.43852z"></path></g></g></svg>