<svg xmlns="http://www.w3.org/2000/svg" xmlns:xlink="http://www.w3.org/1999/xlink" viewBox="0,0,256,256" width="48px" height="48px" fill-rule="nonzero"><g fill="#525252" fill-rule="nonzero" stroke="none" stroke-width="1" stroke-linecap="butt" stroke-linejoin="miter" stroke-miterlimit="10" stroke-dasharray="" stroke-dashoffset="0" font-family="none" font-weight="none" font-size="none" text-anchor="none" style="mix-blend-mode: normal"><g transform="scale(10.66667,10.66667)"><path d="M5,3c-1.1,0 -2,0.9 -2,2v14c0,1.1 0.9,2 2,2h14c1.1,0 2,-0.9 2,-2v-14c0,-1.1 -0.9,-2 -2,-2zM5,5h14v14h-14zM7,8v7.90625h1.67383v-2.79102h1.11523c1.209,0 2.51367,-0.65072 2.51367,-2.51172c0,-0.464 -0.28047,-2.60352 -2.60547,-2.60352zM8.67383,9.30273h1.11523c0.651,0 0.93164,0.64978 0.93164,1.30078c0,0.651 -0.18764,1.20898 -0.93164,1.20898h-1.11523zM15.16992,9.95313c-0.744,0 -2.04687,0.37258 -2.04687,1.76758c0,1.86 2.69727,1.76747 2.69727,2.60547c0,0.372 -0.27839,0.55859 -0.65039,0.55859c-0.186,0 -0.74414,-0.09389 -0.74414,-0.83789h-1.48828c0,0.93 0.74537,1.95313 2.23438,1.95313c0.744,0 2.13867,-0.27883 2.13867,-1.67383c0,-2.047 -2.69727,-1.76627 -2.69727,-2.69727c0,-0.372 0.27959,-0.55859 0.55859,-0.55859c0.372,0 0.55664,0.27914 0.55664,0.74414h1.58203c0,-1.023 -0.74462,-1.86133 -2.14062,-1.86133z"></path></g></g></svg>